<svg width="32" height="32" viewBox="0 0 32 32" fill="none" xmlns="http://www.w3.org/2000/svg">
<path fill-rule="evenodd" clip-rule="evenodd" d="M9.07341 8.74609H6.24199C6.01969 8.74609 5.83984 8.92048 5.83984 9.13578C5.83984 9.35134 6.01968 9.52573 6.24199 9.52573H9.07341C9.29571 9.52573 9.47556 9.35135 9.47556 9.13578C9.47556 8.92048 9.29572 8.74609 9.07341 8.74609Z" fill="#A9ACAE"/>
<path fill-rule="evenodd" clip-rule="evenodd" d="M10.4896 18.3438H6.24227C6.02052 18.3438 5.83984 18.5181 5.83984 18.7337C5.83984 18.9493 6.02052 19.1237 6.24227 19.1237H10.4896C10.7116 19.1237 10.892 18.9493 10.892 18.7337C10.892 18.5181 10.7116 18.3438 10.4896 18.3438Z" fill="#A9ACAE"/>
<path fill-rule="evenodd" clip-rule="evenodd" d="M10.4896 21.0977H6.24227C6.02052 21.0977 5.83984 21.272 5.83984 21.4876C5.83984 21.7032 6.02052 21.8773 6.24227 21.8773H10.4896C10.7116 21.8773 10.892 21.7032 10.892 21.4876C10.892 21.272 10.7116 21.0977 10.4896 21.0977Z" fill="#A9ACAE"/>
<path fill-rule="evenodd" clip-rule="evenodd" d="M24.7038 25.9951C25.96 26.0473 27.2338 25.6089 28.1927 24.6793C30.0069 22.9198 30.0069 20.0634 28.1927 18.303C27.6859 17.8116 27.0909 17.4577 26.457 17.2408V9.13605C26.457 8.66805 26.2655 8.21968 25.9247 7.88892C25.5836 7.55898 25.1212 7.37275 24.6394 7.37275H11.6432H11.6402L11.2364 6.78526C10.8986 6.29492 10.3316 6 9.72353 6H4.81757C4.33578 6 3.87341 6.18569 3.53231 6.51644C3.1915 6.84692 3 7.29557 3 7.76275V24.2375C3 24.7055 3.1915 25.1531 3.53231 25.4838C3.8734 25.8143 4.33579 26 4.81757 26H24.6394C24.661 26 24.6826 25.9984 24.7037 25.9954L24.7038 25.9951ZM25.6527 17.0422V11.8818C25.6527 11.6205 25.5459 11.3711 25.356 11.1861C25.1662 11.0021 24.9081 10.8985 24.6394 10.8985H14.071C13.4629 10.8985 12.8951 10.6043 12.5581 10.114L10.5677 7.21742C10.3795 6.94453 10.0625 6.77983 9.72396 6.77983H4.818C4.54935 6.77983 4.29208 6.88371 4.1014 7.06779C3.91157 7.2524 3.80472 7.50215 3.80472 7.76266V24.2374C3.80472 24.4979 3.91157 24.7482 4.1014 24.9323C4.29207 25.1172 4.54934 25.22 4.818 25.22H22.2895C22.0522 25.0634 21.8271 24.8831 21.6173 24.6796C19.8028 22.9201 19.8028 20.0637 21.6173 18.3033C22.7149 17.2387 24.2278 16.8183 25.6529 17.0422L25.6527 17.0422ZM27.624 18.8555C29.1246 20.3098 29.1246 22.673 27.624 24.1281C26.1231 25.5835 23.6864 25.5835 22.1855 24.1281C20.6849 22.673 20.6849 20.3098 22.1855 18.8547C23.6864 17.4001 26.1231 17.4001 27.624 18.8547V18.8555ZM12.1767 8.15203L13.2268 9.68066C13.415 9.95436 13.7311 10.1183 14.0705 10.1183H24.639C25.0026 10.1183 25.3547 10.2243 25.6523 10.4178V9.13573C25.6523 8.87522 25.5454 8.62493 25.3556 8.44086C25.1658 8.25597 24.9077 8.15209 24.639 8.15209L12.1767 8.15203Z" fill="#A9ACAE"/>
<path d="M26.4161 21.6931C26.4243 21.6296 26.4305 21.5661 26.4305 21.4986C26.4305 21.4311 26.4243 21.3676 26.4161 21.3041L26.8482 20.9766C26.8871 20.9468 26.8974 20.8932 26.8728 20.8495L26.4632 20.1627C26.4387 20.1191 26.3834 20.1032 26.3383 20.1191L25.8284 20.3176C25.722 20.2382 25.6073 20.1727 25.4824 20.123L25.4046 19.597C25.3984 19.5494 25.3554 19.5137 25.3042 19.5137H24.4851C24.4339 19.5137 24.3909 19.5494 24.3848 19.597L24.307 20.123C24.182 20.1727 24.0674 20.2402 23.9609 20.3176L23.451 20.1191C23.4039 20.1012 23.3507 20.1191 23.3261 20.1627L22.9165 20.8495C22.8899 20.8932 22.9022 20.9468 22.9411 20.9766L23.3732 21.3041C23.365 21.3676 23.3589 21.4331 23.3589 21.4986C23.3589 21.5641 23.365 21.6296 23.3732 21.6931L22.9411 22.0206C22.9022 22.0504 22.892 22.104 22.9165 22.1477L23.3261 22.8344C23.3507 22.8781 23.406 22.894 23.451 22.8781L23.9609 22.6796C24.0674 22.759 24.182 22.8245 24.307 22.8741L24.3848 23.4001C24.3909 23.4478 24.4339 23.4835 24.4851 23.4835H25.3042C25.3554 23.4835 25.3984 23.4478 25.4046 23.4001L25.4824 22.8741C25.6073 22.8245 25.722 22.757 25.8284 22.6796L26.3383 22.8781C26.3854 22.896 26.4387 22.8781 26.4632 22.8344L26.8728 22.1477C26.8974 22.104 26.8871 22.0504 26.8482 22.0206L26.4161 21.6931ZM24.8947 22.1933C24.4995 22.1933 24.178 21.8817 24.178 21.4986C24.178 21.1155 24.4995 20.8039 24.8947 20.8039C25.2899 20.8039 25.6114 21.1155 25.6114 21.4986C25.6114 21.8817 25.2899 22.1933 24.8947 22.1933Z" fill="#A9ACAE"/>
</svg>
