<svg width="24" height="24" viewBox="0 0 24 24" fill="none" xmlns="http://www.w3.org/2000/svg">
<path d="M23.4771 5H5.84414C5.55521 5 5.3212 5.28964 5.3212 5.52424V5.97241C5.3212 6.26206 5.5554 6.49665 5.84414 6.49665H23.4771C23.766 6.49665 24 6.20701 24 5.97241V5.52424C24 5.23459 23.7658 5 23.4771 5Z" fill="black"/>
<path d="M23.4771 17.5039H5.84414C5.55521 17.5039 5.3212 17.7935 5.3212 18.0281V18.4763C5.3212 18.766 5.5554 19.0006 5.84414 19.0006H23.4771C23.766 19.0006 24 18.7109 24 18.4763V18.0281C24 17.7385 23.7658 17.5039 23.4771 17.5039Z" fill="black"/>
<path d="M23.4766 11.2639H2.72443L4.14427 9.7224C4.36717 9.49255 4.36717 9.12664 4.14427 8.89661L3.92465 8.67645C3.81393 8.56363 3.66271 8.5 3.50493 8.5C3.34697 8.5 3.19575 8.56363 3.08521 8.67645L0.166899 11.5862C-0.0556374 11.8153 -0.0556374 12.1803 0.166899 12.4094L3.06425 15.3218C3.17497 15.4346 3.32619 15.4982 3.48397 15.4982C3.64193 15.4982 3.79315 15.4346 3.90368 15.3218L4.1233 15.1016C4.3462 14.8716 4.3462 14.5057 4.1233 14.2758L2.7113 12.7344H23.4771C23.766 12.7344 24 12.4998 24 12.2101V11.7881C24 11.4986 23.766 11.2639 23.4771 11.2639L23.4766 11.2639Z" fill="black"/>
</svg>
