<svg width="20" height="21" viewBox="0 0 20 21" fill="none" xmlns="http://www.w3.org/2000/svg">
<g clip-path="url(#clip0_1405_8348)">
<path d="M16.0245 13.7122L13.9079 13.4706C13.3995 13.4122 12.8995 13.5872 12.5412 13.9456L11.0079 15.4789C8.64955 14.2789 6.71621 12.3539 5.51621 9.98724L7.05788 8.44557C7.41621 8.08724 7.59121 7.58724 7.53288 7.07891L7.29121 4.97891C7.19121 4.13724 6.48288 3.50391 5.63288 3.50391H4.19121C3.24955 3.50391 2.46621 4.28724 2.52455 5.22891C2.96621 12.3456 8.65788 18.0289 15.7662 18.4706C16.7079 18.5289 17.4912 17.7456 17.4912 16.8039V15.3622C17.4995 14.5206 16.8662 13.8122 16.0245 13.7122Z" fill="#0D0D0D"/>
</g>
<defs>
<clipPath id="clip0_1405_8348">
<rect width="20" height="20" fill="white" transform="translate(0 0.996094)"/>
</clipPath>
</defs>
</svg>
