<svg width="32" height="32" viewBox="0 0 32 32" fill="none" xmlns="http://www.w3.org/2000/svg">
<path d="M4.97095 28.0441H26.9857V28.0443H27.0306C28.1014 28.0443 28.9799 27.1944 28.9799 26.1525L28.9797 13.1631C28.9797 12.1214 28.1014 11.2715 27.0304 11.2715H4.97075C3.89995 11.2715 3.02149 12.1212 3.02149 13.1631L3.02169 26.1525C3.02169 27.1942 3.89994 28.0441 4.97095 28.0441ZM3.74614 13.1633C3.74614 12.5121 4.2962 11.9769 4.97095 11.9769L27.0304 11.9764C27.7054 11.9764 28.2552 12.5118 28.2552 13.1628L28.2554 26.1521C28.2554 26.8034 27.7054 27.3385 27.0306 27.3385H4.97095C4.296 27.3385 3.74614 26.8032 3.74614 26.1521V13.1633Z" fill="#A9ACAE" stroke="#A9ACAE" stroke-width="0.089824"/>
<path d="M7.09965 25.8933H22.1127C23.1835 25.8933 24.0619 25.0435 24.0619 24.0016V15.3526C24.0619 14.3109 23.1837 13.4609 22.1127 13.4609H7.09965C6.02886 13.4609 5.1504 14.3107 5.1504 15.3526V24.0016C5.1504 25.0433 6.02865 25.8933 7.09965 25.8933ZM5.87485 15.3523C5.87485 14.701 6.42491 14.1659 7.09965 14.1659H22.1125C22.7874 14.1659 23.3373 14.7012 23.3373 15.3523L23.3377 24.0013C23.3377 24.6525 22.7876 25.1877 22.1129 25.1877H7.09985C6.42491 25.1877 5.87505 24.6523 5.87505 24.0013L5.87485 15.3523Z" fill="#A9ACAE" stroke="#A9ACAE" stroke-width="0.089824"/>
<path d="M26.9776 23.5412V23.5412C26.9776 24.0075 26.5865 24.3888 26.1021 24.3888C25.6179 24.3888 25.2266 24.0076 25.2266 23.5412C25.2266 23.0749 25.6177 22.6935 26.1021 22.6935C26.5865 22.6935 26.9778 23.0749 26.9776 23.5412ZM24.502 23.5414C24.502 24.3985 25.2216 25.0945 26.1021 25.0945C26.9826 25.0945 27.7022 24.3986 27.7022 23.5414C27.7022 22.6842 26.9826 21.9883 26.1021 21.9883C25.2216 21.9883 24.502 22.6842 24.502 23.5414Z" fill="#A9ACAE" stroke="#A9ACAE" stroke-width="0.089824"/>
<path d="M13.7502 11.9799C13.8434 11.9981 13.9424 11.9707 14.0212 11.9197C14.0999 11.8688 14.1647 11.7903 14.1836 11.6987L14.1836 11.6987L14.1837 11.698C14.2452 11.3705 14.43 11.0706 14.6788 10.8294C15.019 10.4995 15.4835 10.3188 15.9806 10.3188C16.4774 10.3188 16.9422 10.4995 17.2824 10.8294L17.2824 10.8294C17.5314 11.0707 17.7159 11.3705 17.7774 11.698L17.7774 11.698L13.4609 11.5575M13.7502 11.9799L13.7588 11.9359L13.7503 11.9799C13.7502 11.9799 13.7502 11.9799 13.7502 11.9799ZM13.7502 11.9799C13.657 11.9619 13.5762 11.8996 13.5234 11.8228C13.4707 11.7462 13.4419 11.6492 13.4609 11.5575L13.5049 11.5666L13.461 11.5575C13.461 11.5575 13.461 11.5575 13.4609 11.5575M13.4609 11.5575C13.5584 11.0853 13.8176 10.6779 14.1387 10.3355L14.1401 10.3339L14.1402 10.334C14.625 9.86382 15.2712 9.61329 15.9489 9.61329C16.6265 9.61329 17.2728 9.86364 17.7576 10.334C17.7576 10.334 17.7576 10.334 17.7576 10.334L17.7263 10.3662L13.4609 11.5575Z" fill="#A9ACAE" stroke="#A9ACAE" stroke-width="0.089824"/>
<path d="M17.3298 10.8675C17.3777 10.8908 17.4326 10.9175 17.4903 10.9276L17.4903 10.932H17.5359C17.6485 10.932 17.7546 10.8607 17.821 10.7962L17.8213 10.7965L17.8253 10.7915L22.6817 4.51197L22.6817 4.51194C22.7383 4.43865 22.7553 4.34093 22.742 4.25097C22.7288 4.16097 22.6842 4.07203 22.609 4.01727L22.609 4.01724C22.5339 3.96273 22.4341 3.94647 22.3423 3.95919C22.2506 3.97191 22.1593 4.01464 22.1027 4.08774L22.1027 4.08775L17.2463 10.3667L17.2463 10.3668C17.1897 10.4401 17.1727 10.5378 17.1859 10.6277C17.1992 10.7177 17.2437 10.8067 17.319 10.8614L17.3185 10.862L17.3257 10.8655L17.3298 10.8675Z" fill="#A9ACAE" stroke="#A9ACAE" stroke-width="0.089824"/>
<path d="M14.6337 10.8663L14.6333 10.8657L14.6292 10.8677C14.5691 10.8968 14.4974 10.9316 14.4235 10.9316C14.3188 10.9316 14.2076 10.8975 14.1333 10.7901L9.27769 4.51212C9.27769 4.51211 9.27768 4.51211 9.27768 4.51211C9.22097 4.43881 9.20391 4.34109 9.21717 4.25111C9.23043 4.16109 9.27501 4.07215 9.35036 4.0174M14.6337 10.8663L9.35038 4.01739C9.35037 4.01739 9.35037 4.01739 9.35036 4.0174M14.6337 10.8663L14.6401 10.8616C14.7155 10.8068 14.7601 10.7179 14.7734 10.6279C14.7866 10.5379 14.7696 10.4402 14.7128 10.3669C14.7128 10.3669 14.7128 10.3669 14.7128 10.3669L9.85667 4.08791M14.6337 10.8663L9.35036 4.0174M9.35036 4.0174C9.42543 3.96278 9.52519 3.94646 9.617 3.95919C9.70877 3.9719 9.80009 4.01469 9.85665 4.08789M9.85665 4.08789L9.82112 4.11536L9.85667 4.08791M9.85665 4.08789C9.85666 4.08789 9.85666 4.0879 9.85667 4.08791M9.85665 4.08789L9.85667 4.08791" fill="#A9ACAE" stroke="#A9ACAE" stroke-width="0.089824"/>
<path d="M24.8643 19.1488H27.594C27.699 19.1488 27.7901 19.1147 27.8553 19.0515C27.9207 18.9882 27.9563 18.8991 27.9563 18.7961C27.9563 18.6931 27.9207 18.604 27.8554 18.5407C27.7902 18.4775 27.699 18.4434 27.594 18.4434H24.8643C24.7593 18.4434 24.6681 18.4775 24.6029 18.5407C24.5376 18.604 24.502 18.6931 24.502 18.7961C24.502 18.8991 24.5376 18.9882 24.6029 19.0515C24.6681 19.1147 24.7593 19.1488 24.8643 19.1488Z" fill="#A9ACAE" stroke="#A9ACAE" stroke-width="0.089824"/>
<path d="M24.8643 20.6879H27.594C27.699 20.6879 27.7901 20.6537 27.8553 20.5905C27.9207 20.5272 27.9563 20.4381 27.9563 20.3352C27.9563 20.2322 27.9207 20.1431 27.8554 20.0797C27.7902 20.0165 27.699 19.9824 27.594 19.9824H24.8643C24.7593 19.9824 24.6681 20.0165 24.6029 20.0797C24.5376 20.1431 24.502 20.2322 24.502 20.3352C24.502 20.4382 24.5376 20.5273 24.6029 20.5906C24.6681 20.6538 24.7593 20.6879 24.8643 20.6879Z" fill="#A9ACAE" stroke="#A9ACAE" stroke-width="0.089824"/>
<path d="M24.8643 17.6078H27.594C27.699 17.6078 27.7901 17.5737 27.8553 17.5105C27.9207 17.4472 27.9563 17.3581 27.9563 17.2551C27.9563 17.1521 27.9207 17.063 27.8554 16.9997C27.7902 16.9365 27.699 16.9024 27.594 16.9024H24.8643C24.7593 16.9024 24.6681 16.9365 24.6029 16.9997C24.5376 17.063 24.502 17.1521 24.502 17.2551C24.502 17.3581 24.5376 17.4472 24.6029 17.5105C24.6681 17.5737 24.7593 17.6078 24.8643 17.6078Z" fill="#A9ACAE" stroke="#A9ACAE" stroke-width="0.089824"/>
<path d="M13.0983 24.0425H13.1432V24.0414C13.3268 24.0328 13.5063 23.9737 13.6541 23.9163L13.6543 23.9167L13.6598 23.9136L19.4359 20.6817C19.436 20.6816 19.4362 20.6815 19.4363 20.6815C19.8003 20.4888 19.9994 20.1347 19.9994 19.7494C19.9994 19.362 19.7667 19.0097 19.4375 18.8181L19.4375 18.8181L19.4368 18.8177L13.6598 15.5858L13.6602 15.5851L13.6517 15.5823C13.6275 15.5745 13.6037 15.5666 13.5801 15.5588C13.4209 15.5063 13.2719 15.457 13.0983 15.457C12.5033 15.457 12.0059 15.9377 12.0059 16.5178V22.9818C12.0059 23.5621 12.5035 24.0425 13.0983 24.0425ZM12.7305 16.518C12.7305 16.3053 12.9208 16.167 13.0905 16.1628H13.0983C13.1302 16.1628 13.1678 16.1629 13.205 16.1665C13.2421 16.1701 13.2751 16.1769 13.2997 16.1885L19.0754 19.4507L19.0753 19.4508L19.0779 19.452C19.2466 19.5339 19.2747 19.6975 19.2747 19.7502C19.2747 19.8027 19.2466 19.9665 19.0779 20.0483L19.0778 20.0482L19.0755 20.0495L13.2985 23.2814L13.2985 23.2813L13.2972 23.2822C13.1843 23.3506 13.0418 23.3511 12.9274 23.2956C12.8141 23.2407 12.7305 23.1322 12.7305 22.982V16.518Z" fill="#A9ACAE" stroke="#A9ACAE" stroke-width="0.089824"/>
</svg>
