<svg width="21" height="21" viewBox="0 0 21 21" fill="none" xmlns="http://www.w3.org/2000/svg">
<g clip-path="url(#clip0_1405_8339)">
<path d="M15.2584 5.43568C14.9332 5.11068 14.4079 5.11068 14.0827 5.43568L10.0055 9.50234L5.92831 5.42734C5.60313 5.10234 5.07785 5.10234 4.75267 5.42734C4.42749 5.75234 4.42749 6.27734 4.75267 6.60234L8.82989 10.6773L4.75267 14.7523C4.42749 15.0773 4.42749 15.6023 4.75267 15.9273C5.07785 16.2523 5.60313 16.2523 5.92831 15.9273L10.0055 11.8523L14.0827 15.9273C14.4079 16.2523 14.9332 16.2523 15.2584 15.9273C15.5836 15.6023 15.5836 15.0773 15.2584 14.7523L11.1812 10.6773L15.2584 6.60234C15.5752 6.28568 15.5752 5.75234 15.2584 5.43568V5.43568Z" fill="#0D0D0D"/>
</g>
<defs>
<clipPath id="clip0_1405_8339">
<rect width="20.0109" height="20" fill="white" transform="translate(0 0.675781)"/>
</clipPath>
</defs>
</svg>
