<svg width="11" height="8" viewBox="0 0 11 8" fill="none" xmlns="http://www.w3.org/2000/svg">
<path d="M8.00449 0L8.915 1.82C8.95503 1.9 8.89499 2 8.80494 2H7.81439C7.62428 2 7.44918 1.895 7.36914 1.725L6.50365 0H5.50309L6.4136 1.82C6.45362 1.9 6.39359 2 6.30354 2H5.31298C5.12288 2 4.94778 1.895 4.86773 1.725L4.00225 0H3.00168L3.9122 1.82C3.95222 1.9 3.89218 2 3.80213 2H2.81158C2.62147 2 2.44637 1.895 2.36133 1.725L1.50084 0H1.00056C0.450253 0 0 0.45 0 1V7C0 7.55 0.450253 8 1.00056 8H9.00505C9.55536 8 10.0056 7.55 10.0056 7V0.5C10.0056 0.225 9.78049 0 9.50534 0H8.00449Z" fill="#666666"/>
</svg>
