<svg width="32" height="32" viewBox="0 0 32 32" fill="none" xmlns="http://www.w3.org/2000/svg">
<mask id="path-1-inside-1_788_5241" fill="white">
<path d="M23.4289 17.98C23.4689 17.66 23.4989 17.34 23.4989 17C23.4989 16.66 23.4689 16.34 23.4289 16.02L25.5389 14.37C25.7289 14.22 25.7789 13.95 25.6589 13.73L23.6589 10.27C23.5689 10.11 23.3989 10.02 23.2189 10.02C23.1589 10.02 23.0989 10.03 23.0489 10.05L20.5589 11.05C20.0389 10.65 19.4789 10.32 18.8689 10.07L18.4889 7.42C18.4589 7.18 18.2489 7 17.9989 7H13.9989C13.7489 7 13.5389 7.18 13.5089 7.42L13.1289 10.07C12.5189 10.32 11.9589 10.66 11.4389 11.05L8.94886 10.05C8.88886 10.03 8.82886 10.02 8.76886 10.02C8.59886 10.02 8.42886 10.11 8.33886 10.27L6.33886 13.73C6.20886 13.95 6.26886 14.22 6.45886 14.37L8.56886 16.02C8.52886 16.34 8.49886 16.67 8.49886 17C8.49886 17.33 8.52886 17.66 8.56886 17.98L6.45886 19.63C6.26886 19.78 6.21886 20.05 6.33886 20.27L8.33886 23.73C8.42886 23.89 8.59886 23.98 8.77886 23.98C8.83886 23.98 8.89886 23.97 8.94886 23.95L11.4389 22.95C11.9589 23.35 12.5189 23.68 13.1289 23.93L13.5089 26.58C13.5389 26.82 13.7489 27 13.9989 27H17.9989C18.2489 27 18.4589 26.82 18.4889 26.58L18.8689 23.93C19.4789 23.68 20.0389 23.34 20.5589 22.95L23.0489 23.95C23.1089 23.97 23.1689 23.98 23.2289 23.98C23.3989 23.98 23.5689 23.89 23.6589 23.73L25.6589 20.27C25.7789 20.05 25.7289 19.78 25.5389 19.63L23.4289 17.98ZM21.4489 16.27C21.4889 16.58 21.4989 16.79 21.4989 17C21.4989 17.21 21.4789 17.43 21.4489 17.73L21.3089 18.86L22.1989 19.56L23.2789 20.4L22.5789 21.61L21.3089 21.1L20.2689 20.68L19.3689 21.36C18.9389 21.68 18.5289 21.92 18.1189 22.09L17.0589 22.52L16.8989 23.65L16.6989 25H15.2989L15.1089 23.65L14.9489 22.52L13.8889 22.09C13.4589 21.91 13.0589 21.68 12.6589 21.38L11.7489 20.68L10.6889 21.11L9.41886 21.62L8.71886 20.41L9.79886 19.57L10.6889 18.87L10.5489 17.74C10.5189 17.43 10.4989 17.2 10.4989 17C10.4989 16.8 10.5189 16.57 10.5489 16.27L10.6889 15.14L9.79886 14.44L8.71886 13.6L9.41886 12.39L10.6889 12.9L11.7289 13.32L12.6289 12.64C13.0589 12.32 13.4689 12.08 13.8789 11.91L14.9389 11.48L15.0989 10.35L15.2989 9H16.6889L16.8789 10.35L17.0389 11.48L18.0989 11.91C18.5289 12.09 18.9289 12.32 19.3289 12.62L20.2389 13.32L21.2989 12.89L22.5689 12.38L23.2689 13.59L22.1989 14.44L21.3089 15.14L21.4489 16.27ZM15.9989 13C13.7889 13 11.9989 14.79 11.9989 17C11.9989 19.21 13.7889 21 15.9989 21C18.2089 21 19.9989 19.21 19.9989 17C19.9989 14.79 18.2089 13 15.9989 13ZM15.9989 19C14.8989 19 13.9989 18.1 13.9989 17C13.9989 15.9 14.8989 15 15.9989 15C17.0989 15 17.9989 15.9 17.9989 17C17.9989 18.1 17.0989 19 15.9989 19Z"/>
</mask>
<path d="M23.4289 17.98C23.4689 17.66 23.4989 17.34 23.4989 17C23.4989 16.66 23.4689 16.34 23.4289 16.02L25.5389 14.37C25.7289 14.22 25.7789 13.95 25.6589 13.73L23.6589 10.27C23.5689 10.11 23.3989 10.02 23.2189 10.02C23.1589 10.02 23.0989 10.03 23.0489 10.05L20.5589 11.05C20.0389 10.65 19.4789 10.32 18.8689 10.07L18.4889 7.42C18.4589 7.18 18.2489 7 17.9989 7H13.9989C13.7489 7 13.5389 7.18 13.5089 7.42L13.1289 10.07C12.5189 10.32 11.9589 10.66 11.4389 11.05L8.94886 10.05C8.88886 10.03 8.82886 10.02 8.76886 10.02C8.59886 10.02 8.42886 10.11 8.33886 10.27L6.33886 13.73C6.20886 13.95 6.26886 14.22 6.45886 14.37L8.56886 16.02C8.52886 16.34 8.49886 16.67 8.49886 17C8.49886 17.33 8.52886 17.66 8.56886 17.98L6.45886 19.63C6.26886 19.78 6.21886 20.05 6.33886 20.27L8.33886 23.73C8.42886 23.89 8.59886 23.98 8.77886 23.98C8.83886 23.98 8.89886 23.97 8.94886 23.95L11.4389 22.95C11.9589 23.35 12.5189 23.68 13.1289 23.93L13.5089 26.58C13.5389 26.82 13.7489 27 13.9989 27H17.9989C18.2489 27 18.4589 26.82 18.4889 26.58L18.8689 23.93C19.4789 23.68 20.0389 23.34 20.5589 22.95L23.0489 23.95C23.1089 23.97 23.1689 23.98 23.2289 23.98C23.3989 23.98 23.5689 23.89 23.6589 23.73L25.6589 20.27C25.7789 20.05 25.7289 19.78 25.5389 19.63L23.4289 17.98ZM21.4489 16.27C21.4889 16.58 21.4989 16.79 21.4989 17C21.4989 17.21 21.4789 17.43 21.4489 17.73L21.3089 18.86L22.1989 19.56L23.2789 20.4L22.5789 21.61L21.3089 21.1L20.2689 20.68L19.3689 21.36C18.9389 21.68 18.5289 21.92 18.1189 22.09L17.0589 22.52L16.8989 23.65L16.6989 25H15.2989L15.1089 23.65L14.9489 22.52L13.8889 22.09C13.4589 21.91 13.0589 21.68 12.6589 21.38L11.7489 20.68L10.6889 21.11L9.41886 21.62L8.71886 20.41L9.79886 19.57L10.6889 18.87L10.5489 17.74C10.5189 17.43 10.4989 17.2 10.4989 17C10.4989 16.8 10.5189 16.57 10.5489 16.27L10.6889 15.14L9.79886 14.44L8.71886 13.6L9.41886 12.39L10.6889 12.9L11.7289 13.32L12.6289 12.64C13.0589 12.32 13.4689 12.08 13.8789 11.91L14.9389 11.48L15.0989 10.35L15.2989 9H16.6889L16.8789 10.35L17.0389 11.48L18.0989 11.91C18.5289 12.09 18.9289 12.32 19.3289 12.62L20.2389 13.32L21.2989 12.89L22.5689 12.38L23.2689 13.59L22.1989 14.44L21.3089 15.14L21.4489 16.27ZM15.9989 13C13.7889 13 11.9989 14.79 11.9989 17C11.9989 19.21 13.7889 21 15.9989 21C18.2089 21 19.9989 19.21 19.9989 17C19.9989 14.79 18.2089 13 15.9989 13ZM15.9989 19C14.8989 19 13.9989 18.1 13.9989 17C13.9989 15.9 14.8989 15 15.9989 15C17.0989 15 17.9989 15.9 17.9989 17C17.9989 18.1 17.0989 19 15.9989 19Z" fill="#A9ACAE" stroke="white" mask="url(#path-1-inside-1_788_5241)"/>
</svg>
