<svg width="26" height="20" viewBox="0 0 26 20" fill="none" xmlns="http://www.w3.org/2000/svg">
<path fill-rule="evenodd" clip-rule="evenodd" d="M21.0782 19.9949C22.2965 20.0472 23.5318 19.6085 24.461 18.6794C26.221 16.9195 26.221 14.0631 24.461 12.3032C23.97 11.8123 23.3931 11.4585 22.7781 11.241V3.13549C22.7781 2.66797 22.5927 2.21987 22.2623 1.88923C21.9316 1.55886 21.4826 1.37267 21.0159 1.37267H8.4125H8.41034L8.01824 0.784962C7.69081 0.2948 7.1405 0 6.55114 0H1.79448C1.32666 0 0.877699 0.185662 0.547315 0.51603C0.216924 0.846398 0.03125 1.29533 0.03125 1.76228V18.2369C0.03125 18.7047 0.216924 19.1536 0.547315 19.484C0.877706 19.8143 1.32667 20 1.79365 20H21.0158C21.0368 20 21.0578 19.9984 21.078 19.9951L21.0782 19.9949ZM21.9988 11.0422V5.88116C21.9988 5.62005 21.895 5.36971 21.7112 5.18595C21.5264 5.00109 21.2763 4.89762 21.016 4.89762H10.7664C10.177 4.89762 9.62673 4.60282 9.30041 4.11266L7.36875 1.21722C7.18658 0.943713 6.88017 0.779332 6.5511 0.779332H1.79444C1.53331 0.779332 1.28296 0.882807 1.09835 1.06685C0.914293 1.25144 0.810811 1.50177 0.810811 1.76207V18.2367C0.810811 18.4978 0.914293 18.7481 1.09835 18.9327C1.28295 19.1168 1.5333 19.2205 1.79362 19.2205H18.7378C18.5076 19.0637 18.2896 18.8837 18.0854 18.6794C16.3253 16.9195 16.3253 14.0632 18.0854 12.3033C19.1501 11.2386 20.6169 10.8186 21.9988 11.0425L21.9988 11.0422ZM23.9099 12.8541C25.3652 14.31 25.3652 16.6725 23.9099 18.1281C22.4547 19.5833 20.0916 19.5833 18.6364 18.1281C17.1812 16.6724 17.1812 14.31 18.6364 12.8541C20.0917 11.399 22.4548 11.399 23.9099 12.8541ZM8.92919 2.15206L9.94863 3.68128C10.1311 3.95479 10.438 4.11835 10.7663 4.11835H21.0158C21.368 4.11835 21.7103 4.22453 21.9986 4.41854V3.13559C21.9986 2.87447 21.8949 2.62441 21.7111 2.44038C21.5262 2.25579 21.2761 2.15205 21.0158 2.15205L8.92919 2.15206Z" fill="#0D0D0D"/>
<path fill-rule="evenodd" clip-rule="evenodd" d="M5.91698 2.74805H3.17119C2.95614 2.74805 2.78125 2.92293 2.78125 3.13796C2.78125 3.35273 2.95615 3.52761 3.17119 3.52761H5.91698C6.13203 3.52761 6.30693 3.35272 6.30693 3.13796C6.30693 2.92293 6.13203 2.74805 5.91698 2.74805Z" fill="#0D0D0D"/>
<path fill-rule="evenodd" clip-rule="evenodd" d="M7.28945 12.3574H3.17065C2.95533 12.3574 2.78125 12.5326 2.78125 12.7473C2.78125 12.9624 2.95533 13.1373 3.17065 13.1373H7.28945C7.50476 13.1373 7.67885 12.9624 7.67885 12.7473C7.67885 12.5326 7.50476 12.3574 7.28945 12.3574Z" fill="#0D0D0D"/>
<path fill-rule="evenodd" clip-rule="evenodd" d="M7.28945 15.0977H3.17065C2.95533 15.0977 2.78125 15.2728 2.78125 15.4876C2.78125 15.7023 2.95533 15.8775 3.17065 15.8775H7.28945C7.50476 15.8775 7.67885 15.7023 7.67885 15.4876C7.67885 15.2728 7.50476 15.0977 7.28945 15.0977Z" fill="#0D0D0D"/>
<ellipse cx="21.3609" cy="15.4935" rx="3.33356" ry="3.33333" fill="#FFE2E1"/>
<path fill-rule="evenodd" clip-rule="evenodd" d="M20.7215 15.4915L19.9656 16.2473C19.8136 16.3993 19.8136 16.6464 19.9656 16.7984C20.1175 16.9512 20.3647 16.9512 20.5167 16.7984L21.2726 16.0433L22.0287 16.7984C22.1807 16.9512 22.4278 16.9512 22.5798 16.7984C22.7318 16.6464 22.7318 16.3993 22.5798 16.2473L21.8236 15.4915L22.5798 14.7362C22.7318 14.5834 22.7318 14.3371 22.5798 14.1843C22.4278 14.0323 22.1807 14.0323 22.0287 14.1843L21.2726 14.9404L20.5167 14.1843C20.3647 14.0323 20.1175 14.0323 19.9656 14.1843C19.8136 14.3371 19.8136 14.5834 19.9656 14.7362L20.7215 15.4915Z" fill="#D22F26"/>
</svg>
