<svg width="26" height="20" viewBox="0 0 26 20" fill="none" xmlns="http://www.w3.org/2000/svg">
<path fill-rule="evenodd" clip-rule="evenodd" d="M5.94804 2.74805H3.20232C2.98734 2.74805 2.8125 2.92316 2.8125 3.13787C2.8125 3.35285 2.98735 3.52769 3.20232 3.52769H5.94804C6.16303 3.52769 6.33813 3.35285 6.33813 3.13787C6.33813 2.92315 6.16302 2.74805 5.94804 2.74805Z" fill="#0D0D0D"/>
<path fill-rule="evenodd" clip-rule="evenodd" d="M7.32435 12.3594H3.20542C2.99044 12.3594 2.81641 12.5345 2.81641 12.7492C2.81641 12.9642 2.99044 13.139 3.20542 13.139H7.32435C7.5396 13.139 7.71336 12.9642 7.71336 12.7492C7.71336 12.5345 7.5396 12.3594 7.32435 12.3594Z" fill="#0D0D0D"/>
<path fill-rule="evenodd" clip-rule="evenodd" d="M7.32435 15.0996H3.20542C2.99044 15.0996 2.81641 15.2747 2.81641 15.4894C2.81641 15.7044 2.99044 15.8795 3.20542 15.8795H7.32435C7.5396 15.8795 7.71336 15.7044 7.71336 15.4894C7.71336 15.2747 7.5396 15.0996 7.32435 15.0996Z" fill="#0D0D0D"/>
<path fill-rule="evenodd" clip-rule="evenodd" d="M21.112 19.9955C22.3303 20.0478 23.5655 19.6089 24.4947 18.6797C26.2544 16.92 26.2544 14.0635 24.4947 12.3035C24.0035 11.8127 23.4268 11.4587 22.812 11.2413V3.13557C22.812 2.66788 22.6264 2.21961 22.2958 1.88933C21.9655 1.55877 21.5164 1.37234 21.0496 1.37234H8.44722H8.44399L8.05201 0.784777C7.72549 0.294462 7.17536 0 6.5859 0H1.82855C1.36168 0 0.912874 0.185349 0.582315 0.515909C0.252024 0.846469 0.0664062 1.29531 0.0664062 1.76215V18.237C0.0664062 18.7047 0.252024 19.1535 0.582315 19.4841C0.912874 19.8147 1.36171 20 1.82855 20H21.0497C21.071 20 21.092 19.9984 21.1122 19.9954L21.112 19.9955ZM22.0326 11.0422V5.88122C22.0326 5.62016 21.9289 5.36989 21.7449 5.18589C21.5601 5.00108 21.3101 4.89763 21.0495 4.89763H10.8003C10.2112 4.89763 9.6608 4.6029 9.33424 4.11258L7.40289 1.21733C7.2205 0.943615 6.91338 0.779281 6.58528 0.779281H1.82793C1.56769 0.779281 1.31741 0.883001 1.13288 1.06674C0.948873 1.25155 0.845154 1.50182 0.845154 1.76206V18.2369C0.845154 18.498 0.948873 18.7483 1.13288 18.9331C1.31742 19.1168 1.56769 19.2206 1.82793 19.2206H18.7711C18.5413 19.064 18.3223 18.8838 18.1189 18.6796C16.3588 16.9198 16.3588 14.0633 18.1189 12.3034C19.1836 11.2387 20.6502 10.8187 22.0322 11.0423L22.0326 11.0422ZM23.9435 12.8544C25.3988 14.3102 25.3988 16.6727 23.9435 18.1285C22.4884 19.5836 20.1252 19.5836 18.6702 18.1285C17.2143 16.6727 17.2143 14.3103 18.6702 12.8544C20.1252 11.3991 22.4884 11.3991 23.9435 12.8544ZM8.96381 2.15209L9.98322 3.68123C10.1656 3.95467 10.4719 4.11847 10.8008 4.11847H21.05C21.4024 4.11847 21.7445 4.22435 22.0331 4.41832V3.13567C22.0331 2.87434 21.9294 2.62434 21.7454 2.44034C21.5605 2.25553 21.3105 2.15208 21.05 2.15208L8.96381 2.15209Z" fill="#0D0D0D"/>
<path fill-rule="evenodd" clip-rule="evenodd" d="M20.92 15.1045H19.8505C19.6355 15.1045 19.4609 15.2799 19.4609 15.4943C19.4609 15.7093 19.6355 15.8839 19.8505 15.8839H20.92V16.9534C20.92 17.1684 21.0946 17.343 21.3096 17.343C21.5248 17.343 21.6994 17.1684 21.6994 16.9534V15.8839H22.7679C22.9831 15.8839 23.1577 15.7093 23.1577 15.4943C23.1577 15.2799 22.9831 15.1045 22.7679 15.1045H21.6994V14.036C21.6994 13.8211 21.5248 13.6465 21.3096 13.6465C21.0946 13.6465 20.92 13.8211 20.92 14.036V15.1045Z" fill="#4FC17E"/>
</svg>
