<svg width="20" height="21" viewBox="0 0 20 21" fill="none" xmlns="http://www.w3.org/2000/svg">
<g clip-path="url(#clip0_1405_8345)">
<path d="M10.0003 2.66406C5.40033 2.66406 1.66699 6.3974 1.66699 10.9974C1.66699 15.5974 5.40033 19.3307 10.0003 19.3307C14.6003 19.3307 18.3337 15.5974 18.3337 10.9974C18.3337 6.3974 14.6003 2.66406 10.0003 2.66406ZM10.0003 17.6641C6.32533 17.6641 3.33366 14.6724 3.33366 10.9974C3.33366 7.3224 6.32533 4.33073 10.0003 4.33073C13.6753 4.33073 16.667 7.3224 16.667 10.9974C16.667 14.6724 13.6753 17.6641 10.0003 17.6641ZM9.16699 14.3307H10.8337V15.9974H9.16699V14.3307ZM10.5087 6.03073C8.79199 5.78073 7.27533 6.83906 6.81699 8.35573C6.66699 8.83906 7.03366 9.33073 7.54199 9.33073H7.70866C8.05033 9.33073 8.32533 9.08906 8.44199 8.7724C8.70866 8.03073 9.50033 7.5224 10.3587 7.70573C11.1503 7.8724 11.7337 8.6474 11.667 9.45573C11.5837 10.5724 10.317 10.8141 9.62533 11.8557C9.62533 11.8641 9.61699 11.8641 9.61699 11.8724C9.60866 11.8891 9.60033 11.8974 9.59199 11.9141C9.51699 12.0391 9.44199 12.1807 9.38366 12.3307C9.37533 12.3557 9.35866 12.3724 9.35033 12.3974C9.34199 12.4141 9.34199 12.4307 9.33366 12.4557C9.23366 12.7391 9.16699 13.0807 9.16699 13.4974H10.8337C10.8337 13.1474 10.9253 12.8557 11.067 12.6057C11.0837 12.5807 11.092 12.5557 11.1087 12.5307C11.1753 12.4141 11.2587 12.3057 11.342 12.2057C11.3503 12.1974 11.3587 12.1807 11.367 12.1724C11.4503 12.0724 11.542 11.9807 11.642 11.8891C12.442 11.1307 13.5253 10.5141 13.3003 8.9224C13.1003 7.4724 11.9587 6.2474 10.5087 6.03073Z" fill="#0D0D0D"/>
</g>
<defs>
<clipPath id="clip0_1405_8345">
<rect width="20" height="20" fill="white" transform="translate(0 0.996094)"/>
</clipPath>
</defs>
</svg>
