<svg width="14" height="14" viewBox="0 0 14 14" fill="none" xmlns="http://www.w3.org/2000/svg">
<g clip-path="url(#clip0_836_4867)">
<path d="M5.04402 1.95422L3.41652 3.58172C3.22985 3.76255 3.35819 4.07755 3.62069 4.07755H4.66485V7.58339C4.66485 7.90422 4.92735 8.16672 5.24819 8.16672C5.56902 8.16672 5.83152 7.90422 5.83152 7.58339V4.07755H6.87569C7.13819 4.07755 7.26652 3.76255 7.07985 3.58172L5.45235 1.95422C5.34152 1.84339 5.15485 1.84339 5.04402 1.95422ZM9.33152 9.92255V6.41672C9.33152 6.09589 9.06902 5.83339 8.74819 5.83339C8.42735 5.83339 8.16485 6.09589 8.16485 6.41672V9.92255H7.12069C6.85819 9.92255 6.72985 10.2376 6.91652 10.4184L8.54402 12.0401C8.66069 12.1509 8.84152 12.1509 8.95819 12.0401L10.5857 10.4184C10.7724 10.2376 10.6382 9.92255 10.3815 9.92255H9.33152V9.92255Z" fill="#927F7F"/>
</g>
<defs>
<clipPath id="clip0_836_4867">
<rect width="14" height="14" fill="white"/>
</clipPath>
</defs>
</svg>
