<svg width="20" height="21" viewBox="0 0 20 21" fill="none" xmlns="http://www.w3.org/2000/svg">
<path d="M9 5.99609H11V7.99609H9V5.99609ZM10 15.9961C10.55 15.9961 11 15.5461 11 14.9961V10.9961C11 10.4461 10.55 9.99609 10 9.99609C9.45 9.99609 9 10.4461 9 10.9961V14.9961C9 15.5461 9.45 15.9961 10 15.9961ZM10 0.996094C4.48 0.996094 0 5.47609 0 10.9961C0 16.5161 4.48 20.9961 10 20.9961C15.52 20.9961 20 16.5161 20 10.9961C20 5.47609 15.52 0.996094 10 0.996094ZM10 18.9961C5.59 18.9961 2 15.4061 2 10.9961C2 6.58609 5.59 2.99609 10 2.99609C14.41 2.99609 18 6.58609 18 10.9961C18 15.4061 14.41 18.9961 10 18.9961Z" fill="#0D0D0D"/>
</svg>
