<svg width="12" height="12" viewBox="0 0 12 12" fill="none" xmlns="http://www.w3.org/2000/svg">
<g clip-path="url(#clip0_1382_8396)">
<path d="M5.25303 8.57656L7.24184 7.43656C7.57664 7.24656 7.57664 6.76156 7.24184 6.56656L5.25303 5.42656C4.91823 5.23656 4.50348 5.48156 4.50348 5.86156V8.13656C4.50348 8.52156 4.91823 8.76656 5.25303 8.57656ZM10.4999 3.00156H6.70716L8.17628 1.53156C8.27623 1.43156 8.27623 1.27656 8.17628 1.17656C8.07634 1.07656 7.92144 1.07656 7.8215 1.17656L6.00258 2.99656L4.18367 1.17656C4.08373 1.07656 3.92882 1.07656 3.82888 1.17656C3.72894 1.27656 3.72894 1.43156 3.82888 1.53156L5.298 3.00156H1.50526C0.955591 3.00156 0.505859 3.44656 0.505859 4.00156V10.0016C0.505859 10.5516 0.955591 11.0016 1.50526 11.0016H10.4999C11.0496 11.0016 11.4993 10.5516 11.4993 10.0016V4.00156C11.4993 3.44656 11.0496 3.00156 10.4999 3.00156ZM10.0002 10.0016H2.00497C1.73013 10.0016 1.50526 9.77656 1.50526 9.50156V4.50156C1.50526 4.22656 1.73013 4.00156 2.00497 4.00156H10.0002C10.275 4.00156 10.4999 4.22656 10.4999 4.50156V9.50156C10.4999 9.77656 10.275 10.0016 10.0002 10.0016Z" fill="#666666"/>
</g>
<defs>
<clipPath id="clip0_1382_8396">
<rect width="11.9928" height="12" fill="white" transform="translate(0.00585938)"/>
</clipPath>
</defs>
</svg>
