<svg width="20" height="20" viewBox="0 0 20 20" fill="none" xmlns="http://www.w3.org/2000/svg">
<g clip-path="url(#clip0_1464_12028)">
<path d="M15.0007 6.66536H14.1673V4.9987C14.1673 2.6987 12.3007 0.832031 10.0007 0.832031C7.70065 0.832031 5.83398 2.6987 5.83398 4.9987V6.66536H5.00065C4.08398 6.66536 3.33398 7.41536 3.33398 8.33203V16.6654C3.33398 17.582 4.08398 18.332 5.00065 18.332H15.0007C15.9173 18.332 16.6673 17.582 16.6673 16.6654V8.33203C16.6673 7.41536 15.9173 6.66536 15.0007 6.66536ZM7.50065 4.9987C7.50065 3.61536 8.61732 2.4987 10.0007 2.4987C11.384 2.4987 12.5007 3.61536 12.5007 4.9987V6.66536H7.50065V4.9987ZM14.1673 16.6654H5.83398C5.37565 16.6654 5.00065 16.2904 5.00065 15.832V9.16536C5.00065 8.70703 5.37565 8.33203 5.83398 8.33203H14.1673C14.6257 8.33203 15.0007 8.70703 15.0007 9.16536V15.832C15.0007 16.2904 14.6257 16.6654 14.1673 16.6654ZM10.0007 14.1654C10.9173 14.1654 11.6673 13.4154 11.6673 12.4987C11.6673 11.582 10.9173 10.832 10.0007 10.832C9.08398 10.832 8.33398 11.582 8.33398 12.4987C8.33398 13.4154 9.08398 14.1654 10.0007 14.1654Z" fill="#0D0D0D"/>
</g>
<defs>
<clipPath id="clip0_1464_12028">
<rect width="20" height="20" fill="white"/>
</clipPath>
</defs>
</svg>
