<svg width="32" height="32" viewBox="0 0 32 32" fill="none" xmlns="http://www.w3.org/2000/svg">
<g clip-path="url(#clip0_788_5271)">
<path d="M18.5849 7.08511L18.6446 7.25H18.82H23C23.9619 7.25 24.75 8.03807 24.75 9V23C24.75 23.9619 23.9619 24.75 23 24.75H9C8.87464 24.75 8.75924 24.7412 8.64419 24.7238C8.30903 24.6538 8.00532 24.4809 7.76914 24.2456C7.60566 24.0726 7.47596 23.8883 7.39077 23.6838C7.30224 23.4714 7.25 23.234 7.25 23V9C7.25 8.7561 7.3022 8.52993 7.38927 8.32968L7.38929 8.32969L7.39077 8.32615C7.47779 8.11731 7.60908 7.92447 7.76678 7.76678C8.0047 7.52885 8.31156 7.35437 8.65024 7.2849L8.65025 7.28497L8.65621 7.2836C8.76199 7.25919 8.87188 7.25 9 7.25H13.18H13.3554L13.4151 7.08511C13.8014 6.01817 14.8114 5.25 16 5.25C17.1886 5.25 18.1986 6.01817 18.5849 7.08511ZM23 23.25H23.25V23V9V8.75H23H9H8.75V9V23V23.25H9H23ZM11.25 19.25H17.75V20.75H11.25V19.25ZM11.25 15.25H20.75V16.75H11.25V15.25ZM11.25 11.25H20.75V12.75H11.25V11.25ZM17 7.5C17 6.95193 16.5481 6.5 16 6.5C15.4519 6.5 15 6.95193 15 7.5C15 8.04807 15.4519 8.5 16 8.5C16.5481 8.5 17 8.04807 17 7.5Z" fill="#A9ACAE" stroke="white" stroke-width="0.5"/>
</g>
<defs>
<clipPath id="clip0_788_5271">
<rect width="24" height="24" fill="white" transform="translate(4 4)"/>
</clipPath>
</defs>
</svg>
