<svg width="20" height="21" viewBox="0 0 20 21" fill="none" xmlns="http://www.w3.org/2000/svg">
<g clip-path="url(#clip0_1405_8342)">
<path d="M9.99967 10.9948C11.8413 10.9948 13.333 9.50314 13.333 7.66147C13.333 5.81979 11.8413 4.32812 9.99967 4.32812C8.15801 4.32812 6.66634 5.81979 6.66634 7.66147C6.66634 9.50314 8.15801 10.9948 9.99967 10.9948ZM9.99967 12.6615C7.77467 12.6615 3.33301 13.7781 3.33301 15.9948V16.8282C3.33301 17.2865 3.70801 17.6615 4.16634 17.6615H15.833C16.2913 17.6615 16.6663 17.2865 16.6663 16.8282V15.9948C16.6663 13.7781 12.2247 12.6615 9.99967 12.6615Z" fill="#0D0D0D"/>
</g>
<defs>
<clipPath id="clip0_1405_8342">
<rect width="20" height="20" fill="white" transform="translate(0 0.996094)"/>
</clipPath>
</defs>
</svg>
