<svg width="20" height="21" viewBox="0 0 20 21" fill="none" xmlns="http://www.w3.org/2000/svg">
<g clip-path="url(#clip0_1405_8354)">
<path d="M10.0001 3.49609C9.54173 3.49609 9.16673 3.87109 9.16673 4.32943V10.9961C9.16673 11.4544 9.54173 11.8294 10.0001 11.8294C10.4584 11.8294 10.8334 11.4544 10.8334 10.9961V4.32943C10.8334 3.87109 10.4584 3.49609 10.0001 3.49609ZM14.2834 5.87943C13.9584 6.20443 13.9667 6.71276 14.2751 7.03776C15.2167 8.03776 15.8001 9.37109 15.8334 10.8461C15.9084 14.0378 13.2667 16.7878 10.0751 16.8211C6.81673 16.8711 4.16673 14.2461 4.16673 10.9961C4.16673 9.46276 4.7584 8.07109 5.72506 7.02943C6.0334 6.70443 6.0334 6.19609 5.71673 5.87943C5.3834 5.54609 4.84173 5.55443 4.52506 5.89609C3.31673 7.17943 2.5584 8.88776 2.50006 10.7794C2.3834 14.8461 5.69173 18.3628 9.7584 18.4878C14.0084 18.6211 17.5001 15.2128 17.5001 10.9878C17.5001 9.01276 16.7334 7.22943 15.4834 5.89609C15.1667 5.55443 14.6167 5.54609 14.2834 5.87943Z" fill="#0D0D0D"/>
</g>
<defs>
<clipPath id="clip0_1405_8354">
<rect width="20" height="20" fill="white" transform="translate(0 0.996094)"/>
</clipPath>
</defs>
</svg>
