<svg width="32" height="32" viewBox="0 0 32 32" fill="none" xmlns="http://www.w3.org/2000/svg">
<path d="M7.64128 9.25497L7.62293 9.27195C7.72267 9.37977 7.77306 9.52417 7.76179 9.67068L7.76172 9.67067V9.67259V10.7103V10.7353H7.78672H18.4195V12.9618L7.78672 12.9615L7.76172 12.9615V12.9865V22.4085C7.74043 22.683 7.51142 22.895 7.23594 22.895C6.9607 22.895 6.73167 22.683 6.71017 22.4085V9.67259H6.71024L6.71009 9.67071C6.69904 9.52418 6.74944 9.37978 6.84917 9.27195L6.83082 9.25497M7.64128 9.25497L7.62297 9.27199C7.52301 9.16437 7.38287 9.10313 7.23594 9.10313C7.08924 9.10313 6.9491 9.16436 6.84914 9.27199L6.83082 9.25497M7.64128 9.25497C7.74574 9.36789 7.79852 9.51913 7.78672 9.67259H6.68517C6.67359 9.51913 6.72637 9.3679 6.83082 9.25497M7.64128 9.25497C7.53661 9.14227 7.38984 9.07812 7.23594 9.07812C7.08227 9.07812 6.9355 9.14227 6.83082 9.25497M7.93667 11.5123H7.91167V11.5373V12.1758V12.2008H7.93667H17.6207H17.6457V12.1758V11.5373V11.5123H17.6207H7.93667Z" fill="#A9ACAE" stroke="white" stroke-width="0.05"/>
<path d="M12.3465 14.5154L12.3215 14.5154V14.5404V15.1792V15.2042H12.3465H22.0305H22.0555V15.1792V14.5407V14.5157L22.0305 14.5157L12.3465 14.5154ZM22.8291 13.7418V15.9652H11.5445V13.7418H22.8291Z" fill="#A9ACAE" stroke="white" stroke-width="0.05"/>
<path d="M29.5971 18.1935L29.6221 18.1935V18.1685V17.5458V17.5208H29.5971H9.96734H9.94234V17.5458V18.1683V18.1933L9.96734 18.1933L29.5971 18.1935ZM30.3993 18.9703L9.16563 18.9705V16.7438L30.3993 16.7438V18.9703Z" fill="#A9ACAE" stroke="white" stroke-width="0.05"/>
<path d="M18.8472 20.5205L18.8222 20.5205V20.5455V21.1843V21.2093H18.8472H25.0699H25.0949V21.1843V20.5457V20.5207L25.0699 20.5207L18.8472 20.5205ZM25.8716 19.7438V21.9703H18.0484V19.7438H25.8716Z" fill="#A9ACAE" stroke="white" stroke-width="0.05"/>
<path d="M1.87996 12.2115C1.76704 12.107 1.70312 11.96 1.70312 11.8063C1.70312 11.6524 1.76704 11.5057 1.87996 11.4012V12.2115ZM1.87996 12.2115C1.99266 12.316 2.1441 12.3687 2.29733 12.3572L1.87996 12.2115ZM2.29541 11.2805L2.2954 11.2805H2.29733H4.93999C5.21446 11.3018 5.42641 11.5308 5.42641 11.8063C5.42641 12.0818 5.21448 12.3107 4.93998 12.3322H2.29733V12.3321L2.29545 12.3322C2.14914 12.3433 2.00454 12.2929 1.89696 12.1932L1.89694 12.1931C1.78916 12.0934 1.72813 11.9531 1.72813 11.8063C1.72813 11.6594 1.78916 11.5193 1.89694 11.4196L1.89698 11.4195C2.00455 11.3196 2.14913 11.2692 2.29541 11.2805Z" fill="#A9ACAE" stroke="white" stroke-width="0.05"/>
<path d="M3.89954 15.2356H2.30312C2.01359 15.2356 1.77891 15.0009 1.77891 14.7114C1.77891 14.4218 2.01359 14.1871 2.30312 14.1871H3.89954C4.18907 14.1871 4.42376 14.4218 4.42376 14.7114C4.42376 15.0009 4.18907 15.2356 3.89954 15.2356Z" fill="#A9ACAE" stroke="white" stroke-width="0.05"/>
<path d="M2.2915 17.0949L2.2915 17.095H2.29342H4.20829C4.48276 17.1163 4.69471 17.3453 4.69471 17.6208C4.69471 17.8961 4.48277 18.1251 4.20828 18.1466H2.29342V18.1465L2.29154 18.1467C2.14525 18.1577 2.00086 18.1073 1.89303 18.0076C1.78546 17.9079 1.72422 17.7675 1.72422 17.6208C1.72422 17.4739 1.78546 17.3337 1.89305 17.234L1.89305 17.234C2.00087 17.134 2.14524 17.0836 2.2915 17.0949Z" fill="#A9ACAE" stroke="white" stroke-width="0.05"/>
<path d="M1.89696 20.9119C1.78915 20.812 1.72813 20.6718 1.72813 20.5251C1.72813 20.3781 1.78916 20.238 1.89696 20.1381C2.00454 20.0383 2.14913 19.9879 2.29541 19.9992L2.2954 19.9993H2.29733H3.46809C3.74256 20.0206 3.95451 20.2496 3.95451 20.5251C3.95451 20.8004 3.74257 21.0294 3.46809 21.0507H2.29733V21.0506L2.29541 21.0508C2.14913 21.062 2.00455 21.0116 1.89696 20.9119ZM1.89696 20.9119L1.87996 20.9302L1.89696 20.9119Z" fill="#A9ACAE" stroke="white" stroke-width="0.05"/>
</svg>
