<svg width="25" height="24" viewBox="0 0 25 24" fill="none" xmlns="http://www.w3.org/2000/svg">
<g clip-path="url(#clip0_788_5322)">
<path d="M4.99609 14H6.99609C7.54609 14 7.99609 13.55 7.99609 13V11C7.99609 10.45 7.54609 10 6.99609 10H4.99609C4.44609 10 3.99609 10.45 3.99609 11V13C3.99609 13.55 4.44609 14 4.99609 14ZM4.99609 19H6.99609C7.54609 19 7.99609 18.55 7.99609 18V16C7.99609 15.45 7.54609 15 6.99609 15H4.99609C4.44609 15 3.99609 15.45 3.99609 16V18C3.99609 18.55 4.44609 19 4.99609 19ZM4.99609 9H6.99609C7.54609 9 7.99609 8.55 7.99609 8V6C7.99609 5.45 7.54609 5 6.99609 5H4.99609C4.44609 5 3.99609 5.45 3.99609 6V8C3.99609 8.55 4.44609 9 4.99609 9ZM9.99609 14H19.9961C20.5461 14 20.9961 13.55 20.9961 13V11C20.9961 10.45 20.5461 10 19.9961 10H9.99609C9.44609 10 8.99609 10.45 8.99609 11V13C8.99609 13.55 9.44609 14 9.99609 14ZM9.99609 19H19.9961C20.5461 19 20.9961 18.55 20.9961 18V16C20.9961 15.45 20.5461 15 19.9961 15H9.99609C9.44609 15 8.99609 15.45 8.99609 16V18C8.99609 18.55 9.44609 19 9.99609 19ZM8.99609 6V8C8.99609 8.55 9.44609 9 9.99609 9H19.9961C20.5461 9 20.9961 8.55 20.9961 8V6C20.9961 5.45 20.5461 5 19.9961 5H9.99609C9.44609 5 8.99609 5.45 8.99609 6Z" fill="#0D0D0D"/>
</g>
<defs>
<clipPath id="clip0_788_5322">
<rect width="24" height="24" fill="white" transform="translate(0.996094)"/>
</clipPath>
</defs>
</svg>
