<svg width="25" height="24" viewBox="0 0 25 24" fill="none" xmlns="http://www.w3.org/2000/svg">
<path d="M5.99609 11H8.99609C9.54609 11 9.99609 10.55 9.99609 9.99999V6C9.99609 5.45 9.54609 5 8.99609 5H5.99609C5.44609 5 4.99609 5.45 4.99609 6V9.99999C4.99609 10.55 5.44609 11 5.99609 11ZM5.99609 18H8.99609C9.54609 18 9.99609 17.55 9.99609 17V13C9.99609 12.45 9.54609 12 8.99609 12H5.99609C5.44609 12 4.99609 12.45 4.99609 13V17C4.99609 17.55 5.44609 18 5.99609 18ZM11.9961 18H14.9961C15.5461 18 15.9961 17.55 15.9961 17V13C15.9961 12.45 15.5461 12 14.9961 12H11.9961C11.4461 12 10.9961 12.45 10.9961 13V17C10.9961 17.55 11.4461 18 11.9961 18ZM17.9961 18H20.9961C21.5461 18 21.9961 17.55 21.9961 17V13C21.9961 12.45 21.5461 12 20.9961 12H17.9961C17.4461 12 16.9961 12.45 16.9961 13V17C16.9961 17.55 17.4461 18 17.9961 18ZM11.9961 11H14.9961C15.5461 11 15.9961 10.55 15.9961 9.99999V6C15.9961 5.45 15.5461 5 14.9961 5H11.9961C11.4461 5 10.9961 5.45 10.9961 6V9.99999C10.9961 10.55 11.4461 11 11.9961 11ZM16.9961 6V9.99999C16.9961 10.55 17.4461 11 17.9961 11H20.9961C21.5461 11 21.9961 10.55 21.9961 9.99999V6C21.9961 5.45 21.5461 5 20.9961 5H17.9961C17.4461 5 16.9961 5.45 16.9961 6Z" fill="#0D0D0D"/>
</svg>
